<svg xmlns="http://www.w3.org/2000/svg" viewBox="0 0 96 96" role="img" aria-label="Memory Book 9/8">
  <defs>
    <linearGradient id="background" x1="14" y1="8" x2="84" y2="90" gradientUnits="userSpaceOnUse">
      <stop stop-color="#fffaf1"/>
      <stop offset=".55" stop-color="#fbf3e7"/>
      <stop offset="1" stop-color="#f5d7df"/>
    </linearGradient>
    <linearGradient id="book" x1="20" y1="24" x2="76" y2="76" gradientUnits="userSpaceOnUse">
      <stop stop-color="#ffffff"/>
      <stop offset="1" stop-color="#fff1df"/>
    </linearGradient>
  </defs>

  <rect width="96" height="96" rx="25" fill="url(#background)"/>
  <path d="M18 72c9-4 20-3 30 4 10-7 21-8 30-4V27c-9-4-20-3-30 5-10-8-21-9-30-5z" fill="#35291f" opacity=".13"/>
  <path d="M18 24c9-4 20-3 30 5 10-8 21-9 30-5v45c-9-4-20-3-30 5-10-8-21-9-30-5z" fill="url(#book)" stroke="#35291f" stroke-width="4.8" stroke-linejoin="round"/>
  <path d="M48 29v45" stroke="#35291f" stroke-width="3.4" stroke-linecap="round" opacity=".28"/>

  <path d="M29 42c2.2-5.8 7.4-8.7 13.4-7.3 4.6 1.1 7.6 5.3 7.1 10.3-.8 8.7-10.3 10.9-17.2 18.7" fill="none" stroke="#e96f8c" stroke-width="7.2" stroke-linecap="round" stroke-linejoin="round"/>
  <path d="M62.5 34.8c6 0 10.1 3.4 10.1 8.5 0 4.4-3.2 7.2-7.4 8.5 4.9 1.3 8.4 4.3 8.4 9.2 0 5.6-4.6 9.5-11.1 9.5s-11.1-3.9-11.1-9.5c0-4.9 3.5-7.9 8.4-9.2-4.2-1.3-7.4-4.1-7.4-8.5 0-5.1 4.1-8.5 10.1-8.5z" fill="none" stroke="#87bfe2" stroke-width="7.2" stroke-linecap="round" stroke-linejoin="round"/>

  <path d="M26 21 36.5 11 47 21l-10.5-3.2z" fill="#f7b7c7" stroke="#35291f" stroke-width="3.6" stroke-linejoin="round"/>
  <path d="M24 80c5-2.4 11.2-1.7 17 1.9" stroke="#7a5639" stroke-width="3.2" stroke-linecap="round" opacity=".55"/>
  <path d="M55 81.9c5.8-3.6 12-4.3 17-1.9" stroke="#7a5639" stroke-width="3.2" stroke-linecap="round" opacity=".55"/>
  <path d="M76 15c-2.2-2.6-6.2-1.3-6.2 2 0 3.6 6.2 6.9 6.2 6.9s6.2-3.3 6.2-6.9c0-3.3-4-4.6-6.2-2z" fill="#e96f8c"/>
</svg>
